<svg width="22" height="24" viewBox="0 0 22 24" fill="none" xmlns="http://www.w3.org/2000/svg">
<g id="Group">
<g id="Group_2">
<path id="Vector" d="M21.2004 19.6V0.4C21.2004 0.16 21.0404 0 20.8004 0H2.80039C2.56039 0 2.40039 0.16 2.40039 0.4V6H3.20039V0.8H20.4004V19.2H16.8004C16.5604 19.2 16.4004 19.36 16.4004 19.6V23.2H3.20039V17.2H2.40039V23.6C2.40039 23.84 2.56039 24 2.80039 24H16.8004C16.9204 24 17.0004 23.96 17.0804 23.88L21.0804 19.88C21.1204 19.84 21.1204 19.8 21.1604 19.76V19.72C21.2004 19.68 21.2004 19.64 21.2004 19.6ZM17.2004 20H19.8404L18.5204 21.32L17.2004 22.64V20Z" fill="white"/>
<path id="Vector_2" d="M5.2 15.1984H7.6H9.2V14.3984H8V6.79844C8 6.55844 7.84 6.39844 7.6 6.39844H5.2C4.96 6.39844 4.8 6.55844 4.8 6.79844V9.19844H2.8C2.56 9.19844 2.4 9.35844 2.4 9.59844V11.1984H0.4C0.16 11.1984 0 11.3584 0 11.5984V14.7984C0 15.0384 0.16 15.1984 0.4 15.1984H2.8H5.2ZM5.6 7.19844H7.2V14.3984H5.6V9.59844V7.19844ZM3.2 9.99844H4.8V14.3984H3.2V11.5984V9.99844ZM0.8 11.9984H2.4V14.3984H0.8V11.9984Z" fill="white"/>
<path id="Vector_3" d="M18.7996 9.59844V2.79844C18.7996 2.55844 18.6396 2.39844 18.3996 2.39844H9.99961C9.75961 2.39844 9.59961 2.55844 9.59961 2.79844V9.59844C9.59961 9.83844 9.75961 9.99844 9.99961 9.99844H18.3996C18.6396 9.99844 18.7996 9.83844 18.7996 9.59844ZM17.9996 4.79844H13.1996V3.19844H17.9996V4.79844ZM12.3996 3.19844V4.79844H10.3996C10.3996 4.15844 10.3996 3.19844 10.3996 3.19844H12.3996ZM10.3996 5.59844H12.3996V9.19844H10.3996C10.3996 9.19844 10.3996 7.31844 10.3996 5.59844ZM13.1996 9.19844V5.59844H17.9996V9.19844H13.1996Z" fill="white"/>
<path id="Vector_4" d="M18.4 11.1992H10V11.9992H18.4V11.1992Z" fill="white"/>
<path id="Vector_5" d="M18.4 13.1992H10V13.9992H18.4V13.1992Z" fill="white"/>
<path id="Vector_6" d="M18.4 15.1992H10V15.9992H18.4V15.1992Z" fill="white"/>
<path id="Vector_7" d="M6.80039 2.39844H4.40039V3.19844H6.80039V2.39844Z" fill="white"/>
<path id="Vector_8" d="M8.00039 4.39844H4.40039V5.19844H8.00039V4.39844Z" fill="white"/>
<path id="Vector_9" d="M7.20039 17.1992H4.40039V17.9992H7.20039V17.1992Z" fill="white"/>
<path id="Vector_10" d="M11.2004 17.1992H8.40039V17.9992H11.2004V17.1992Z" fill="white"/>
<path id="Vector_11" d="M15.2004 17.1992H12.4004V17.9992H15.2004V17.1992Z" fill="white"/>
<path id="Vector_12" d="M7.20039 19.1992H4.40039V19.9992H7.20039V19.1992Z" fill="white"/>
<path id="Vector_13" d="M11.2004 19.1992H8.40039V19.9992H11.2004V19.1992Z" fill="white"/>
<path id="Vector_14" d="M15.2004 19.1992H12.4004V19.9992H15.2004V19.1992Z" fill="white"/>
<path id="Vector_15" d="M7.20039 21.1992H4.40039V21.9992H7.20039V21.1992Z" fill="white"/>
<path id="Vector_16" d="M11.2004 21.1992H8.40039V21.9992H11.2004V21.1992Z" fill="white"/>
<path id="Vector_17" d="M15.2004 21.1992H12.4004V21.9992H15.2004V21.1992Z" fill="white"/>
</g>
</g>
</svg>
