<svg width="24" height="24" viewBox="0 0 24 24" fill="none" xmlns="http://www.w3.org/2000/svg">
<g id="interview-svgrepo-com 2" clip-path="url(#clip0_0_208)">
<g id="Group">
<g id="Group_2">
<path id="Vector" d="M8.39961 10.3984H7.59961V11.1984H8.39961V10.3984Z" fill="black"/>
<path id="Vector_2" d="M8.39961 12H7.59961V12.8H8.39961V12Z" fill="black"/>
<path id="Vector_3" d="M7.59961 5.2H8.39961C9.51961 5.2 10.3996 4.32 10.3996 3.2V2C10.3996 0.88 9.51961 0 8.39961 0H7.59961C6.47961 0 5.59961 0.88 5.59961 2V3.2C5.59961 4.32 6.47961 5.2 7.59961 5.2ZM6.39961 2C6.39961 1.32 6.91961 0.8 7.59961 0.8H8.39961C9.07961 0.8 9.59961 1.32 9.59961 2V3.2C9.59961 3.88 9.07961 4.4 8.39961 4.4H7.59961C6.91961 4.4 6.39961 3.88 6.39961 3.2V2Z" fill="black"/>
<path id="Vector_4" d="M23.6 13.6016H12.8V8.40156C12.8 6.84156 11.56 5.60156 10 5.60156H6C4.44 5.60156 3.2 6.84156 3.2 8.40156V13.6016H0.4C0.16 13.6016 0 13.7616 0 14.0016V16.4016C0 16.6416 0.16 16.8016 0.4 16.8016H1.6V24.0016H2.4V16.8016H20V16.0016H2H0.8V14.4016H23.2V16.0016H22C21.76 16.0016 21.6 16.1616 21.6 16.4016V24.0016H22.4V16.8016H23.6C23.84 16.8016 24 16.6416 24 16.4016V14.0016C24 13.7616 23.84 13.6016 23.6 13.6016ZM8.68 6.40156L8.04 8.08156L7.4 6.40156H8.68ZM4 8.40156C4 7.28156 4.88 6.40156 6 6.40156H6.52L7.64 9.36156C7.68 9.48156 7.84 9.60156 8 9.60156C8.16 9.60156 8.32 9.48156 8.44 9.36156L9.56 6.40156H10C11.12 6.40156 12 7.28156 12 8.40156V13.6016H10.8V9.60156H10V13.6016H6V9.60156H5.2V13.6016H4V8.40156Z" fill="black"/>
<path id="Vector_5" d="M23.5996 1.19922H13.9996C13.7596 1.19922 13.5996 1.35922 13.5996 1.59922V7.19922C13.5996 7.43922 13.7596 7.59922 13.9996 7.59922H15.9996V9.19922C15.9996 9.35922 16.0796 9.51922 16.2396 9.55922C16.2796 9.59922 16.3596 9.59922 16.3996 9.59922C16.5196 9.59922 16.5996 9.55922 16.6796 9.47922L18.5596 7.59922H23.5996C23.8396 7.59922 23.9996 7.43922 23.9996 7.19922V1.59922C23.9996 1.35922 23.8396 1.19922 23.5996 1.19922ZM23.1996 6.79922H18.3996C18.2796 6.79922 18.1996 6.83922 18.1196 6.91922L16.7996 8.23922V7.19922C16.7996 6.95922 16.6396 6.79922 16.3996 6.79922H14.3996V1.99922H23.1996V6.79922Z" fill="black"/>
<path id="Vector_6" d="M17.9996 3.19922H15.5996V3.99922H17.9996V3.19922Z" fill="black"/>
<path id="Vector_7" d="M21.2008 3.19922H18.8008V3.99922H21.2008V3.19922Z" fill="black"/>
<path id="Vector_8" d="M21.9996 4.80078H15.5996V5.60078H21.9996V4.80078Z" fill="black"/>
<path id="Vector_9" d="M13.9996 18.8008H9.99961C9.75961 18.8008 9.59961 18.9608 9.59961 19.2008V21.6008C9.59961 21.8408 9.75961 22.0008 9.99961 22.0008H13.9996C14.2396 22.0008 14.3996 21.8408 14.3996 21.6008V19.2008C14.3996 18.9608 14.2396 18.8008 13.9996 18.8008ZM13.5996 21.2008H10.3996V19.6008H13.5996V21.2008Z" fill="black"/>
<path id="Vector_10" d="M16.8 19.1992H16V19.9992H16.8V19.1992Z" fill="black"/>
<path id="Vector_11" d="M18.3996 19.1992H17.5996V19.9992H18.3996V19.1992Z" fill="black"/>
<path id="Vector_12" d="M19.9992 19.1992H19.1992V19.9992H19.9992V19.1992Z" fill="black"/>
<path id="Vector_13" d="M16.8 20.8008H16V21.6008H16.8V20.8008Z" fill="black"/>
<path id="Vector_14" d="M18.3996 20.8008H17.5996V21.6008H18.3996V20.8008Z" fill="black"/>
<path id="Vector_15" d="M19.9992 20.8008H19.1992V21.6008H19.9992V20.8008Z" fill="black"/>
<path id="Vector_16" d="M4.8 19.1992H4V19.9992H4.8V19.1992Z" fill="black"/>
<path id="Vector_17" d="M6.39961 19.1992H5.59961V19.9992H6.39961V19.1992Z" fill="black"/>
<path id="Vector_18" d="M7.99922 19.1992H7.19922V19.9992H7.99922V19.1992Z" fill="black"/>
<path id="Vector_19" d="M4.8 20.8008H4V21.6008H4.8V20.8008Z" fill="black"/>
<path id="Vector_20" d="M6.39961 20.8008H5.59961V21.6008H6.39961V20.8008Z" fill="black"/>
<path id="Vector_21" d="M7.99922 20.8008H7.19922V21.6008H7.99922V20.8008Z" fill="black"/>
</g>
</g>
</g>
<defs>
<clipPath id="clip0_0_208">
<rect width="24" height="24" fill="white"/>
</clipPath>
</defs>
</svg>
