<svg width="24" height="24" viewBox="0 0 24 24" fill="none" xmlns="http://www.w3.org/2000/svg">
<g id="interview-svgrepo-com 1" clip-path="url(#clip0_0_147)">
<g id="Group">
<g id="Group_2">
<path id="Vector" d="M5.14369 10.2874C6.56184 10.2874 7.71512 9.1341 7.71512 7.71596C7.71512 6.29782 6.56184 5.14453 5.14369 5.14453C3.72555 5.14453 2.57227 6.29782 2.57227 7.71596C2.57227 9.1341 3.72555 10.2874 5.14369 10.2874ZM5.14369 6.00167C6.08912 6.00167 6.85798 6.77053 6.85798 7.71596C6.85798 8.66139 6.08912 9.43025 5.14369 9.43025C4.19827 9.43025 3.42941 8.66139 3.42941 7.71596C3.42941 6.77053 4.19827 6.00167 5.14369 6.00167Z" fill="black"/>
<path id="Vector_2" d="M18.8566 10.2874C20.2747 10.2874 21.428 9.1341 21.428 7.71596C21.428 6.29782 20.2747 5.14453 18.8566 5.14453C17.4384 5.14453 16.2852 6.29782 16.2852 7.71596C16.2852 9.1341 17.4384 10.2874 18.8566 10.2874ZM18.8566 6.00167C19.802 6.00167 20.5709 6.77053 20.5709 7.71596C20.5709 8.66139 19.802 9.43025 18.8566 9.43025C17.9112 9.43025 17.1423 8.66139 17.1423 7.71596C17.1423 6.77053 17.9112 6.00167 18.8566 6.00167Z" fill="black"/>
<path id="Vector_3" d="M23.1429 11.1445V16.716C23.1429 17.4248 22.566 18.0017 21.8571 18.0017V13.2874C21.8571 12.1058 20.8959 11.1445 19.7143 11.1445H17.5714C17.3349 11.1445 17.1429 11.3365 17.1429 11.5731V13.2874V13.716V14.1445H13.7143C13.4777 14.1445 13.2857 14.3365 13.2857 14.5731V15.8588H10.7143V14.5731C10.7143 14.3365 10.5223 14.1445 10.2857 14.1445H6.85714V13.716V13.2874V11.5731C6.85714 11.3365 6.66514 11.1445 6.42857 11.1445H4.28571C3.10414 11.1445 2.14286 12.1058 2.14286 13.2874V18.0017C1.434 18.0017 0.857143 17.4248 0.857143 16.716V11.1445H0V16.716C0 17.5924 0.530143 18.3454 1.28571 18.6771V24.0017H2.14286V18.8588H2.57143H3H6.42857V23.5731C6.42857 23.8097 6.62057 24.0017 6.85714 24.0017H8.14286H8.57143H9V23.5731V17.1445V16.716H10.2857H13.7143H15V17.1445V23.5731V24.0017H15.4286H15.8571H17.1429C17.3794 24.0017 17.5714 23.8097 17.5714 23.5731V18.8588H21H21.4286H21.8571V24.0017H22.7143V18.6771C23.4699 18.3454 24 17.5924 24 16.716V11.1445H23.1429ZM8.57143 15.8588H7.71429H5.14286V13.2874H4.28571V16.2874C4.28571 16.524 4.47771 16.716 4.71429 16.716H7.71429C7.95043 16.716 8.14286 16.9084 8.14286 17.1445V23.1445H7.28571V18.4302C7.28571 18.1937 7.09371 18.0017 6.85714 18.0017H3V13.2874C3 12.5785 3.57686 12.0017 4.28571 12.0017H6V13.2874V13.716V14.5731C6 14.8097 6.192 15.0017 6.42857 15.0017H9.85714V15.8588H8.57143ZM17.1429 18.0017C16.9063 18.0017 16.7143 18.1937 16.7143 18.4302V23.1445H15.8571V17.1445C15.8571 16.9084 16.0496 16.716 16.2857 16.716H19.2857C19.5223 16.716 19.7143 16.524 19.7143 16.2874V13.2874H18.8571V15.8588H16.2857H15.4286H14.1429V15.0017H17.5714C17.808 15.0017 18 14.8097 18 14.5731V13.716V13.2874V12.0017H19.7143C20.4231 12.0017 21 12.5785 21 13.2874V18.0017H17.1429Z" fill="black"/>
<path id="Vector_4" d="M8.14314 4.28571V5.57143C8.14314 5.75614 8.26099 5.91943 8.43628 5.97814C8.48085 5.99271 8.52671 6 8.57171 6C8.70414 6 8.83185 5.93829 8.91456 5.82857L10.0717 4.28571H13.286C13.9949 4.28571 14.5717 3.70886 14.5717 3V1.28571C14.5717 0.576857 13.9949 0 13.286 0H8.14314C7.43428 0 6.85742 0.576857 6.85742 1.28571V3C6.85742 3.70886 7.43428 4.28571 8.14314 4.28571ZM7.71456 1.28571C7.71456 1.04957 7.90699 0.857143 8.14314 0.857143H13.286C13.5221 0.857143 13.7146 1.04957 13.7146 1.28571V3C13.7146 3.23614 13.5221 3.42857 13.286 3.42857H9.85742C9.72242 3.42857 9.59557 3.492 9.51456 3.6L9.00028 4.28571V3.85714C9.00028 3.62057 8.80828 3.42857 8.57171 3.42857H8.14314C7.90699 3.42857 7.71456 3.23614 7.71456 3V1.28571Z" fill="black"/>
<path id="Vector_5" d="M12.858 1.71484H8.57227V2.57199H12.858V1.71484Z" fill="black"/>
<path id="Vector_6" d="M14.1437 10.7148H11.5723V11.572H14.1437V10.7148Z" fill="black"/>
<path id="Vector_7" d="M11.1431 9C10.4343 9 9.85742 9.57686 9.85742 10.2857V12C9.85742 12.7089 10.4343 13.2857 11.1431 13.2857H14.5717C15.2806 13.2857 15.8574 12.7089 15.8574 12V11.7013L16.6426 10.5236C16.7304 10.392 16.7386 10.2231 16.664 10.0839C16.5894 9.94414 16.4441 9.85714 16.286 9.85714H15.7841C15.6071 9.35829 15.1306 9 14.5717 9H11.1431ZM15.0003 10.2857C15.0003 10.5223 15.1923 10.7143 15.4289 10.7143H15.485L15.0723 11.3336C15.0256 11.4039 15.0003 11.487 15.0003 11.5714V12C15.0003 12.2361 14.8079 12.4286 14.5717 12.4286H11.1431C10.907 12.4286 10.7146 12.2361 10.7146 12V10.2857C10.7146 10.0496 10.907 9.85714 11.1431 9.85714H14.5717C14.8079 9.85714 15.0003 10.0496 15.0003 10.2857Z" fill="black"/>
<path id="Vector_8" d="M10.7146 6.85547H9.85742V7.71261H10.7146V6.85547Z" fill="black"/>
<path id="Vector_9" d="M12.4294 6.85547H11.5723V7.71261H12.4294V6.85547Z" fill="black"/>
<path id="Vector_10" d="M14.1423 6.85547H13.2852V7.71261H14.1423V6.85547Z" fill="black"/>
</g>
</g>
</g>
<defs>
<clipPath id="clip0_0_147">
<rect width="24" height="24" fill="white"/>
</clipPath>
</defs>
</svg>
