<svg width="49" height="48" viewBox="0 0 49 48" fill="none" xmlns="http://www.w3.org/2000/svg">
<g id="Group 237788">
<g id="Group">
<path id="Vector" d="M8.57206 22.8133L5.76758 0.183594H10.1068L11.7735 15.5768L13.255 0.183594H17.5942L14.7897 22.8133H8.57206Z" fill="black"/>
<path id="Vector_2" d="M18.6797 22.8145V0.210938H23.0714V22.8145H18.6797Z" fill="black"/>
<path id="Vector_3" d="M24.8992 22.8145V0.210938H29.45V18.9723H34.1329V22.8137H24.8984L24.8992 22.8145Z" fill="black"/>
<path id="Vector_4" d="M36.3275 21.499C35.41 20.482 34.9512 18.8413 34.9512 16.5784V14.3677H39.4224V17.1837C39.4224 18.3067 39.7839 18.8674 40.5076 18.8674C40.9131 18.8674 41.1958 18.7491 41.3541 18.5125C41.5132 18.2752 41.5928 17.8773 41.5928 17.315C41.5928 16.5784 41.504 15.9693 41.3279 15.4861C41.151 15.0037 40.9262 14.6005 40.6528 14.2756C40.3794 13.9514 39.8897 13.4468 39.1845 12.7624L37.2266 10.8152C35.7096 9.34191 34.9512 7.71042 34.9512 5.92069C34.9512 3.99117 35.3968 2.52252 36.2874 1.5132C37.1779 0.504657 38.4794 0 40.1902 0C42.2362 0 43.7091 0.539222 44.6089 1.61843C45.5087 2.69688 45.9583 4.38598 45.9583 6.68421H41.3279L41.3016 5.13183C41.3016 4.8338 41.2174 4.59721 41.0498 4.42131C40.8822 4.24618 40.6482 4.15785 40.3485 4.15785C39.9955 4.15785 39.7306 4.25463 39.5545 4.44743C39.3776 4.641 39.2904 4.9037 39.2904 5.23706C39.2904 5.97369 39.7136 6.73721 40.5601 7.52607L43.2063 10.0524C43.8234 10.6493 44.3347 11.2146 44.741 11.7492C45.1465 12.2846 45.4724 12.916 45.7196 13.6442C45.9668 14.3723 46.0903 15.2365 46.0903 16.2358C46.0903 18.4634 45.6802 20.1525 44.8599 21.3016C44.0397 22.4507 42.6857 23.0253 40.7988 23.0253C38.735 23.0253 37.2443 22.5168 36.3275 21.499Z" fill="black"/>
<path id="Vector_5" d="M0 47.2387V43.6269C0 43.5632 0.051749 43.5117 0.115856 43.5117H4.51452C4.57863 43.5117 4.63037 43.5632 4.63037 43.6269V47.2387C4.63037 47.3024 4.57863 47.3539 4.51452 47.3539H0.115856C0.051749 47.3539 0 47.3024 0 47.2387Z" fill="url(#paint0_linear_0_63)"/>
<path id="Vector_6" d="M18.9707 47.3575V24.7539H23.3624V47.3575H18.9707Z" fill="black"/>
<path id="Vector_7" d="M14.7897 24.7266L17.5942 47.3562H13.255L11.5882 31.963L10.1068 47.3562H5.76758L8.57206 24.7266H14.7897Z" fill="black"/>
</g>
<g id="Group_2">
<path id="Vector_8" d="M26.4062 35.9454H31.1285C31.1285 32.3575 34.0527 29.4494 37.6605 29.4494V24.75C31.446 24.75 26.4062 29.762 26.4062 35.9446V35.9454Z" fill="url(#paint1_linear_0_63)"/>
<path id="Vector_9" d="M48.9164 35.9414H44.1941C44.1941 39.5293 41.2699 42.4374 37.6621 42.4374V47.1368C43.8766 47.1368 48.9164 42.1248 48.9164 35.9422V35.9414Z" fill="url(#paint2_linear_0_63)"/>
<g id="Clip path group">
<mask id="mask0_0_63" style="mask-type:luminance" maskUnits="userSpaceOnUse" x="37" y="35" width="12" height="13">
<g id="clippath">
<path id="Vector_10" d="M48.9203 35.9414H44.198C44.198 39.5293 41.2738 42.4374 37.666 42.4374V47.1368C43.8805 47.1368 48.9203 42.1248 48.9203 35.9422V35.9414Z" fill="white"/>
</g>
</mask>
<g mask="url(#mask0_0_63)">
<g id="Group_3">
<g id="Group_4">
<path id="Vector_11" d="M46.4999 37.9844H51.6114" stroke="white" stroke-width="0.258025" stroke-miterlimit="10" stroke-linecap="round"/>
<path id="Vector_12" d="M37.666 38.9765H51.8978" stroke="white" stroke-width="0.258025" stroke-miterlimit="10" stroke-linecap="round"/>
<path id="Vector_13" d="M37.666 39.9687H51.8978" stroke="white" stroke-width="0.258025" stroke-miterlimit="10" stroke-linecap="round"/>
<path id="Vector_14" d="M37.666 40.9608H51.8978" stroke="white" stroke-width="0.258025" stroke-miterlimit="10" stroke-linecap="round"/>
<path id="Vector_15" d="M37.666 41.953H51.8978" stroke="white" stroke-width="0.258025" stroke-miterlimit="10" stroke-linecap="round"/>
<path id="Vector_16" d="M37.666 42.9453H51.8978" stroke="white" stroke-width="0.258025" stroke-miterlimit="10" stroke-linecap="round"/>
<path id="Vector_17" d="M37.666 43.9375H51.8978" stroke="white" stroke-width="0.258025" stroke-miterlimit="10" stroke-linecap="round"/>
<path id="Vector_18" d="M37.666 44.9297H51.8978" stroke="white" stroke-width="0.258025" stroke-miterlimit="10" stroke-linecap="round"/>
<path id="Vector_19" d="M37.666 45.9219H51.8978" stroke="white" stroke-width="0.258025" stroke-miterlimit="10" stroke-linecap="round"/>
<path id="Vector_20" d="M37.666 46.9141H51.8978" stroke="white" stroke-width="0.258025" stroke-miterlimit="10" stroke-linecap="round"/>
</g>
</g>
</g>
</g>
<g id="Group_5">
<path id="Vector_21" d="M46.5445 38.1896C46.607 37.8485 46.7105 37.6042 46.7932 37.4522C46.8256 37.393 46.7592 37.3269 46.7013 37.3607C46.0092 37.7617 45.7064 38.3462 45.6686 38.8156C45.6361 39.2204 45.9134 39.6367 46.3344 39.7127C46.7545 39.7888 47.1577 39.5107 47.2342 39.0929C47.3137 38.6543 47.0033 38.2333 46.5452 38.1896H46.5445Z" fill="white"/>
<path id="Vector_22" d="M44.8179 38.1896C44.8805 37.8485 44.984 37.6042 45.0666 37.4522C45.099 37.393 45.0326 37.3269 44.9747 37.3607C44.2826 37.7617 43.9799 38.3462 43.942 38.8156C43.9096 39.2204 44.1869 39.6367 44.6078 39.7127C45.028 39.7888 45.4312 39.5107 45.5076 39.0929C45.5872 38.6543 45.2767 38.2333 44.8187 38.1896H44.8179Z" fill="white"/>
</g>
<g id="Clip path group_2">
<mask id="mask1_0_63" style="mask-type:luminance" maskUnits="userSpaceOnUse" x="26" y="24" width="12" height="12">
<g id="clippath-1">
<path id="Vector_23" d="M26.4082 35.9454H31.1305C31.1305 32.3575 34.0547 29.4494 37.6624 29.4494V24.75C31.4479 24.75 26.4082 29.762 26.4082 35.9446V35.9454Z" fill="white"/>
</g>
</mask>
<g mask="url(#mask1_0_63)">
<g id="Group_6">
<g id="Group_7">
<path id="Vector_24" d="M36.3067 26.2612H36.0116V26.4901H36.3067C36.5469 26.4901 36.7423 26.2958 36.7423 26.0569V25.7366H36.5121V26.0569C36.5121 26.1698 36.4202 26.2612 36.3067 26.2612ZM36.0116 24.6758V24.9047H36.3067C36.4202 24.9047 36.5121 24.9969 36.5121 25.1098V25.3763H36.7423V25.1098C36.7423 24.8701 36.5469 24.6758 36.3067 24.6758H36.0116ZM35.1481 25.7366H34.918V26.0569C34.918 26.2958 35.1134 26.4901 35.3544 26.4901H35.6494V26.2612H35.3544C35.2408 26.2612 35.1481 26.1698 35.1481 26.0569V25.7366ZM34.918 25.1098V25.3763H35.1481V25.1098C35.1481 24.9969 35.2408 24.9047 35.3544 24.9047H35.6494V24.6758H35.3544C35.1134 24.6758 34.918 24.8701 34.918 25.1098Z" fill="white"/>
<path id="Vector_25" d="M38.7501 26.2612H38.455V26.4901H38.7501C38.9903 26.4901 39.1857 26.2958 39.1857 26.0569V25.7366H38.9555V26.0569C38.9555 26.1698 38.8636 26.2612 38.7501 26.2612ZM38.455 24.6758V24.9047H38.7501C38.8636 24.9047 38.9555 24.9969 38.9555 25.1098V25.3763H39.1857V25.1098C39.1857 24.8701 38.9903 24.6758 38.7501 24.6758H38.455ZM37.5915 25.7366H37.3613V26.0569C37.3613 26.2958 37.5567 26.4901 37.7977 26.4901H38.0928V26.2612H37.7977C37.6842 26.2612 37.5915 26.1698 37.5915 26.0569V25.7366ZM37.3613 25.1098V25.3763H37.5915V25.1098C37.5915 24.9969 37.6842 24.9047 37.7977 24.9047H38.0928V24.6758H37.7977C37.5567 24.6758 37.3613 24.8701 37.3613 25.1098Z" fill="white"/>
<path id="Vector_26" d="M33.8809 26.2612H33.5859V26.4901H33.8809C34.1211 26.4901 34.3165 26.2958 34.3165 26.0569V25.7366H34.0864V26.0569C34.0864 26.1698 33.9945 26.2612 33.8809 26.2612ZM33.5859 24.6758V24.9047H33.8809C33.9945 24.9047 34.0864 24.9969 34.0864 25.1098V25.3763H34.3165V25.1098C34.3165 24.8701 34.1211 24.6758 33.8809 24.6758H33.5859ZM32.7224 25.7366H32.4922V26.0569C32.4922 26.2958 32.6876 26.4901 32.9286 26.4901H33.2236V26.2612H32.9286C32.815 26.2612 32.7224 26.1698 32.7224 26.0569V25.7366ZM32.4922 25.1098V25.3763H32.7224V25.1098C32.7224 24.9969 32.815 24.9047 32.9286 24.9047H33.2236V24.6758H32.9286C32.6876 24.6758 32.4922 24.8701 32.4922 25.1098Z" fill="white"/>
<path id="Vector_27" d="M31.4551 26.2612H31.1601V26.4901H31.4551C31.6953 26.4901 31.8908 26.2958 31.8908 26.0569V25.7366H31.6606V26.0569C31.6606 26.1698 31.5687 26.2612 31.4551 26.2612ZM31.1601 24.6758V24.9047H31.4551C31.5687 24.9047 31.6606 24.9969 31.6606 25.1098V25.3763H31.8908V25.1098C31.8908 24.8701 31.6953 24.6758 31.4551 24.6758H31.1601ZM30.2966 25.7366H30.0664V26.0569C30.0664 26.2958 30.2618 26.4901 30.5028 26.4901H30.7978V26.2612H30.5028C30.3893 26.2612 30.2966 26.1698 30.2966 26.0569V25.7366ZM30.0664 25.1098V25.3763H30.2966V25.1098C30.2966 24.9969 30.3893 24.9047 30.5028 24.9047H30.7978V24.6758H30.5028C30.2618 24.6758 30.0664 24.8701 30.0664 25.1098Z" fill="white"/>
<path id="Vector_28" d="M36.3067 30.8159H36.0116V31.0448H36.3067C36.5469 31.0448 36.7423 30.8504 36.7423 30.6116V30.2912H36.5121V30.6116C36.5121 30.7245 36.4202 30.8159 36.3067 30.8159ZM36.0116 29.2305V29.4594H36.3067C36.4202 29.4594 36.5121 29.5515 36.5121 29.6645V29.931H36.7423V29.6645C36.7423 29.4248 36.5469 29.2305 36.3067 29.2305H36.0116ZM35.1481 30.2912H34.918V30.6116C34.918 30.8504 35.1134 31.0448 35.3544 31.0448H35.6494V30.8159H35.3544C35.2408 30.8159 35.1481 30.7245 35.1481 30.6116V30.2912ZM34.918 29.6645V29.931H35.1481V29.6645C35.1481 29.5515 35.2408 29.4594 35.3544 29.4594H35.6494V29.2305H35.3544C35.1134 29.2305 34.918 29.4248 34.918 29.6645Z" fill="white"/>
<path id="Vector_29" d="M35.0918 28.5385H34.7968V28.7674H35.0918C35.3321 28.7674 35.5275 28.5731 35.5275 28.3342V28.0139H35.2973V28.3342C35.2973 28.4471 35.2054 28.5385 35.0918 28.5385ZM34.7968 26.9531V27.182H35.0918C35.2054 27.182 35.2973 27.2742 35.2973 27.3871V27.6537H35.5275V27.3871C35.5275 27.1475 35.3321 26.9531 35.0918 26.9531H34.7968ZM33.9333 28.0139H33.7031V28.3342C33.7031 28.5731 33.8985 28.7674 34.1395 28.7674H34.4346V28.5385H34.1395C34.026 28.5385 33.9333 28.4471 33.9333 28.3342V28.0139ZM33.7031 27.3871V27.6537H33.9333V27.3871C33.9333 27.2742 34.026 27.182 34.1395 27.182H34.4346V26.9531H34.1395C33.8985 26.9531 33.7031 27.1475 33.7031 27.3871Z" fill="white"/>
<path id="Vector_30" d="M32.6836 28.5385H32.3886V28.7674H32.6836C32.9239 28.7674 33.1193 28.5731 33.1193 28.3342V28.0139H32.8891V28.3342C32.8891 28.4471 32.7972 28.5385 32.6836 28.5385ZM32.3886 26.9531V27.182H32.6836C32.7972 27.182 32.8891 27.2742 32.8891 27.3871V27.6537H33.1193V27.3871C33.1193 27.1475 32.9239 26.9531 32.6836 26.9531H32.3886ZM31.5251 28.0139H31.2949V28.3342C31.2949 28.5731 31.4903 28.7674 31.7313 28.7674H32.0264V28.5385H31.7313C31.6178 28.5385 31.5251 28.4471 31.5251 28.3342V28.0139ZM31.2949 27.3871V27.6537H31.5251V27.3871C31.5251 27.2742 31.6178 27.182 31.7313 27.182H32.0264V26.9531H31.7313C31.4903 26.9531 31.2949 27.1475 31.2949 27.3871Z" fill="white"/>
<path id="Vector_31" d="M30.3008 28.5385H30.0058V28.7674H30.3008C30.541 28.7674 30.7365 28.5731 30.7365 28.3342V28.0139H30.5063V28.3342C30.5063 28.4471 30.4144 28.5385 30.3008 28.5385ZM30.0058 26.9531V27.182H30.3008C30.4144 27.182 30.5063 27.2742 30.5063 27.3871V27.6537H30.7365V27.3871C30.7365 27.1475 30.541 26.9531 30.3008 26.9531H30.0058ZM29.1423 28.0139H28.9121V28.3342C28.9121 28.5731 29.1075 28.7674 29.3485 28.7674H29.6435V28.5385H29.3485C29.235 28.5385 29.1423 28.4471 29.1423 28.3342V28.0139ZM28.9121 27.3871V27.6537H29.1423V27.3871C29.1423 27.2742 29.235 27.182 29.3485 27.182H29.6435V26.9531H29.3485C29.1075 26.9531 28.9121 27.1475 28.9121 27.3871Z" fill="white"/>
<path id="Vector_32" d="M37.502 28.5385H37.207V28.7674H37.502C37.7422 28.7674 37.9376 28.5731 37.9376 28.3342V28.0139H37.7075V28.3342C37.7075 28.4471 37.6155 28.5385 37.502 28.5385ZM37.207 26.9531V27.182H37.502C37.6155 27.182 37.7075 27.2742 37.7075 27.3871V27.6537H37.9376V27.3871C37.9376 27.1475 37.7422 26.9531 37.502 26.9531H37.207ZM36.3434 28.0139H36.1133V28.3342C36.1133 28.5731 36.3087 28.7674 36.5497 28.7674H36.8447V28.5385H36.5497C36.4361 28.5385 36.3434 28.4471 36.3434 28.3342V28.0139ZM36.1133 27.3871V27.6537H36.3434V27.3871C36.3434 27.2742 36.4361 27.182 36.5497 27.182H36.8447V26.9531H36.5497C36.3087 26.9531 36.1133 27.1475 36.1133 27.3871Z" fill="white"/>
<path id="Vector_33" d="M33.8809 30.8159H33.5859V31.0448H33.8809C34.1211 31.0448 34.3165 30.8504 34.3165 30.6116V30.2912H34.0864V30.6116C34.0864 30.7245 33.9945 30.8159 33.8809 30.8159ZM33.5859 29.2305V29.4594H33.8809C33.9945 29.4594 34.0864 29.5515 34.0864 29.6645V29.931H34.3165V29.6645C34.3165 29.4248 34.1211 29.2305 33.8809 29.2305H33.5859ZM32.7224 30.2912H32.4922V30.6116C32.4922 30.8504 32.6876 31.0448 32.9286 31.0448H33.2236V30.8159H32.9286C32.815 30.8159 32.7224 30.7245 32.7224 30.6116V30.2912ZM32.4922 29.6645V29.931H32.7224V29.6645C32.7224 29.5515 32.815 29.4594 32.9286 29.4594H33.2236V29.2305H32.9286C32.6876 29.2305 32.4922 29.4248 32.4922 29.6645Z" fill="white"/>
<path id="Vector_34" d="M31.4551 30.8159H31.1601V31.0448H31.4551C31.6953 31.0448 31.8908 30.8504 31.8908 30.6116V30.2912H31.6606V30.6116C31.6606 30.7245 31.5687 30.8159 31.4551 30.8159ZM31.1601 29.2305V29.4594H31.4551C31.5687 29.4594 31.6606 29.5515 31.6606 29.6645V29.931H31.8908V29.6645C31.8908 29.4248 31.6953 29.2305 31.4551 29.2305H31.1601ZM30.2966 30.2912H30.0664V30.6116C30.0664 30.8504 30.2618 31.0448 30.5028 31.0448H30.7978V30.8159H30.5028C30.3893 30.8159 30.2966 30.7245 30.2966 30.6116V30.2912ZM30.0664 29.6645V29.931H30.2966V29.6645C30.2966 29.5515 30.3893 29.4594 30.5028 29.4594H30.7978V29.2305H30.5028C30.2618 29.2305 30.0664 29.4248 30.0664 29.6645Z" fill="white"/>
<path id="Vector_35" d="M29.0528 30.8159H28.7577V31.0448H29.0528C29.293 31.0448 29.4884 30.8504 29.4884 30.6116V30.2912H29.2582V30.6116C29.2582 30.7245 29.1663 30.8159 29.0528 30.8159ZM28.7577 29.2305V29.4594H29.0528C29.1663 29.4594 29.2582 29.5515 29.2582 29.6645V29.931H29.4884V29.6645C29.4884 29.4248 29.293 29.2305 29.0528 29.2305H28.7577ZM27.8942 30.2912H27.6641V30.6116C27.6641 30.8504 27.8595 31.0448 28.1005 31.0448H28.3955V30.8159H28.1005C27.9869 30.8159 27.8942 30.7245 27.8942 30.6116V30.2912ZM27.6641 29.6645V29.931H27.8942V29.6645C27.8942 29.5515 27.9869 29.4594 28.1005 29.4594H28.3955V29.2305H28.1005C27.8595 29.2305 27.6641 29.4248 27.6641 29.6645Z" fill="white"/>
<path id="Vector_36" d="M36.3067 35.3667H36.0116V35.5956H36.3067C36.5469 35.5956 36.7423 35.4012 36.7423 35.1623V34.842H36.5121V35.1623C36.5121 35.2752 36.4202 35.3667 36.3067 35.3667ZM36.0116 33.7812V34.0102H36.3067C36.4202 34.0102 36.5121 34.1023 36.5121 34.2152V34.4818H36.7423V34.2152C36.7423 33.9756 36.5469 33.7812 36.3067 33.7812H36.0116ZM35.1481 34.842H34.918V35.1623C34.918 35.4012 35.1134 35.5956 35.3544 35.5956H35.6494V35.3667H35.3544C35.2408 35.3667 35.1481 35.2752 35.1481 35.1623V34.842ZM34.918 34.2152V34.4818H35.1481V34.2152C35.1481 34.1023 35.2408 34.0102 35.3544 34.0102H35.6494V33.7812H35.3544C35.1134 33.7812 34.918 33.9756 34.918 34.2152Z" fill="white"/>
<path id="Vector_37" d="M35.0918 33.0932H34.7968V33.3221H35.0918C35.3321 33.3221 35.5275 33.1278 35.5275 32.8889V32.5686H35.2973V32.8889C35.2973 33.0018 35.2054 33.0932 35.0918 33.0932ZM34.7968 31.5078V31.7367H35.0918C35.2054 31.7367 35.2973 31.8289 35.2973 31.9418V32.2083H35.5275V31.9418C35.5275 31.7021 35.3321 31.5078 35.0918 31.5078H34.7968ZM33.9333 32.5686H33.7031V32.8889C33.7031 33.1278 33.8985 33.3221 34.1395 33.3221H34.4346V33.0932H34.1395C34.026 33.0932 33.9333 33.0018 33.9333 32.8889V32.5686ZM33.7031 31.9418V32.2083H33.9333V31.9418C33.9333 31.8289 34.026 31.7367 34.1395 31.7367H34.4346V31.5078H34.1395C33.8985 31.5078 33.7031 31.7021 33.7031 31.9418Z" fill="white"/>
<path id="Vector_38" d="M32.6836 33.0932H32.3886V33.3221H32.6836C32.9239 33.3221 33.1193 33.1278 33.1193 32.8889V32.5686H32.8891V32.8889C32.8891 33.0018 32.7972 33.0932 32.6836 33.0932ZM32.3886 31.5078V31.7367H32.6836C32.7972 31.7367 32.8891 31.8289 32.8891 31.9418V32.2083H33.1193V31.9418C33.1193 31.7021 32.9239 31.5078 32.6836 31.5078H32.3886ZM31.5251 32.5686H31.2949V32.8889C31.2949 33.1278 31.4903 33.3221 31.7313 33.3221H32.0264V33.0932H31.7313C31.6178 33.0932 31.5251 33.0018 31.5251 32.8889V32.5686ZM31.2949 31.9418V32.2083H31.5251V31.9418C31.5251 31.8289 31.6178 31.7367 31.7313 31.7367H32.0264V31.5078H31.7313C31.4903 31.5078 31.2949 31.7021 31.2949 31.9418Z" fill="white"/>
<path id="Vector_39" d="M30.3008 33.0932H30.0058V33.3221H30.3008C30.541 33.3221 30.7365 33.1278 30.7365 32.8889V32.5686H30.5063V32.8889C30.5063 33.0018 30.4144 33.0932 30.3008 33.0932ZM30.0058 31.5078V31.7367H30.3008C30.4144 31.7367 30.5063 31.8289 30.5063 31.9418V32.2083H30.7365V31.9418C30.7365 31.7021 30.541 31.5078 30.3008 31.5078H30.0058ZM29.1423 32.5686H28.9121V32.8889C28.9121 33.1278 29.1075 33.3221 29.3485 33.3221H29.6435V33.0932H29.3485C29.235 33.0932 29.1423 33.0018 29.1423 32.8889V32.5686ZM28.9121 31.9418V32.2083H29.1423V31.9418C29.1423 31.8289 29.235 31.7367 29.3485 31.7367H29.6435V31.5078H29.3485C29.1075 31.5078 28.9121 31.7021 28.9121 31.9418Z" fill="white"/>
<path id="Vector_40" d="M27.959 33.0932H27.664V33.3221H27.959C28.1992 33.3221 28.3947 33.1278 28.3947 32.8889V32.5686H28.1645V32.8889C28.1645 33.0018 28.0726 33.0932 27.959 33.0932ZM27.664 31.5078V31.7367H27.959C28.0726 31.7367 28.1645 31.8289 28.1645 31.9418V32.2083H28.3947V31.9418C28.3947 31.7021 28.1992 31.5078 27.959 31.5078H27.664ZM26.8005 32.5686H26.5703V32.8889C26.5703 33.1278 26.7657 33.3221 27.0067 33.3221H27.3017V33.0932H27.0067C26.8932 33.0932 26.8005 33.0018 26.8005 32.8889V32.5686ZM26.5703 31.9418V32.2083H26.8005V31.9418C26.8005 31.8289 26.8932 31.7367 27.0067 31.7367H27.3017V31.5078H27.0067C26.7657 31.5078 26.5703 31.7021 26.5703 31.9418Z" fill="white"/>
<path id="Vector_41" d="M37.502 33.0932H37.207V33.3221H37.502C37.7422 33.3221 37.9376 33.1278 37.9376 32.8889V32.5686H37.7075V32.8889C37.7075 33.0018 37.6155 33.0932 37.502 33.0932ZM37.207 31.5078V31.7367H37.502C37.6155 31.7367 37.7075 31.8289 37.7075 31.9418V32.2083H37.9376V31.9418C37.9376 31.7021 37.7422 31.5078 37.502 31.5078H37.207ZM36.3434 32.5686H36.1133V32.8889C36.1133 33.1278 36.3087 33.3221 36.5497 33.3221H36.8447V33.0932H36.5497C36.4361 33.0932 36.3434 33.0018 36.3434 32.8889V32.5686ZM36.1133 31.9418V32.2083H36.3434V31.9418C36.3434 31.8289 36.4361 31.7367 36.5497 31.7367H36.8447V31.5078H36.5497C36.3087 31.5078 36.1133 31.7021 36.1133 31.9418Z" fill="white"/>
<path id="Vector_42" d="M33.8809 35.3667H33.5859V35.5956H33.8809C34.1211 35.5956 34.3165 35.4012 34.3165 35.1623V34.842H34.0864V35.1623C34.0864 35.2752 33.9945 35.3667 33.8809 35.3667ZM33.5859 33.7812V34.0102H33.8809C33.9945 34.0102 34.0864 34.1023 34.0864 34.2152V34.4818H34.3165V34.2152C34.3165 33.9756 34.1211 33.7812 33.8809 33.7812H33.5859ZM32.7224 34.842H32.4922V35.1623C32.4922 35.4012 32.6876 35.5956 32.9286 35.5956H33.2236V35.3667H32.9286C32.815 35.3667 32.7224 35.2752 32.7224 35.1623V34.842ZM32.4922 34.2152V34.4818H32.7224V34.2152C32.7224 34.1023 32.815 34.0102 32.9286 34.0102H33.2236V33.7812H32.9286C32.6876 33.7812 32.4922 33.9756 32.4922 34.2152Z" fill="white"/>
<path id="Vector_43" d="M31.4551 35.3667H31.1601V35.5956H31.4551C31.6953 35.5956 31.8908 35.4012 31.8908 35.1623V34.842H31.6606V35.1623C31.6606 35.2752 31.5687 35.3667 31.4551 35.3667ZM31.1601 33.7812V34.0102H31.4551C31.5687 34.0102 31.6606 34.1023 31.6606 34.2152V34.4818H31.8908V34.2152C31.8908 33.9756 31.6953 33.7812 31.4551 33.7812H31.1601ZM30.2966 34.842H30.0664V35.1623C30.0664 35.4012 30.2618 35.5956 30.5028 35.5956H30.7978V35.3667H30.5028C30.3893 35.3667 30.2966 35.2752 30.2966 35.1623V34.842ZM30.0664 34.2152V34.4818H30.2966V34.2152C30.2966 34.1023 30.3893 34.0102 30.5028 34.0102H30.7978V33.7812H30.5028C30.2618 33.7812 30.0664 33.9756 30.0664 34.2152Z" fill="white"/>
<path id="Vector_44" d="M29.0528 35.3667H28.7577V35.5956H29.0528C29.293 35.5956 29.4884 35.4012 29.4884 35.1623V34.842H29.2582V35.1623C29.2582 35.2752 29.1663 35.3667 29.0528 35.3667ZM28.7577 33.7812V34.0102H29.0528C29.1663 34.0102 29.2582 34.1023 29.2582 34.2152V34.4818H29.4884V34.2152C29.4884 33.9756 29.293 33.7812 29.0528 33.7812H28.7577ZM27.8942 34.842H27.6641V35.1623C27.6641 35.4012 27.8595 35.5956 28.1005 35.5956H28.3955V35.3667H28.1005C27.9869 35.3667 27.8942 35.2752 27.8942 35.1623V34.842ZM27.6641 34.2152V34.4818H27.8942V34.2152C27.8942 34.1023 27.9869 34.0102 28.1005 34.0102H28.3955V33.7812H28.1005C27.8595 33.7812 27.6641 33.9756 27.6641 34.2152Z" fill="white"/>
<path id="Vector_45" d="M26.6817 35.3667H26.3866V35.5956H26.6817C26.9219 35.5956 27.1173 35.4012 27.1173 35.1623V34.842H26.8871V35.1623C26.8871 35.2752 26.7952 35.3667 26.6817 35.3667ZM26.3866 33.7812V34.0102H26.6817C26.7952 34.0102 26.8871 34.1023 26.8871 34.2152V34.4818H27.1173V34.2152C27.1173 33.9756 26.9219 33.7812 26.6817 33.7812H26.3866ZM25.5231 34.842H25.293V35.1623C25.293 35.4012 25.4884 35.5956 25.7294 35.5956H26.0244V35.3667H25.7294C25.6158 35.3667 25.5231 35.2752 25.5231 35.1623V34.842ZM25.293 34.2152V34.4818H25.5231V34.2152C25.5231 34.1023 25.6158 34.0102 25.7294 34.0102H26.0244V33.7812H25.7294C25.4884 33.7812 25.293 33.9756 25.293 34.2152Z" fill="white"/>
</g>
</g>
</g>
</g>
<g id="Clip path group_3">
<mask id="mask2_0_63" style="mask-type:luminance" maskUnits="userSpaceOnUse" x="37" y="24" width="12" height="12">
<g id="clippath-2">
<path id="Vector_46" d="M37.6602 24.75V29.4463C41.2679 29.4463 44.1921 32.3544 44.1921 35.9423H48.9175C48.9175 29.762 43.8778 24.75 37.6609 24.75H37.6602Z" fill="white"/>
</g>
</mask>
<g mask="url(#mask2_0_63)">
<g id="Group_8">
<g id="Group_9">
<path id="Vector_47" d="M38.3981 24.7812H36.9785V29.4484H38.3981V24.7812Z" fill="url(#paint3_linear_0_63)"/>
<path id="Vector_48" d="M46.1799 28.6112L45.1836 27.6055L41.8404 30.8808L42.8366 31.8865L46.1799 28.6112Z" fill="url(#paint4_linear_0_63)"/>
<path id="Vector_49" d="M47.8128 31.0734L47.1152 29.8438L43.0279 32.137L43.7254 33.3666L47.8128 31.0734Z" fill="url(#paint5_linear_0_63)"/>
<path id="Vector_50" d="M41.3078 25.3492L39.9375 24.9805L38.7118 29.4856L40.0822 29.8543L41.3078 25.3492Z" fill="url(#paint6_linear_0_63)"/>
<path id="Vector_51" d="M48.741 33.872L48.3906 32.5039L43.8429 33.6559L44.1933 35.024L48.741 33.872Z" fill="url(#paint7_linear_0_63)"/>
<path id="Vector_52" d="M43.9582 26.6613L42.7324 25.9492L40.3654 29.9792L41.5912 30.6913L43.9582 26.6613Z" fill="url(#paint8_linear_0_63)"/>
<path id="Vector_53" d="M48.8967 36.814L48.918 35.4023L44.2256 35.3323L44.2043 36.7439L48.8967 36.814Z" fill="url(#paint9_linear_0_63)"/>
</g>
</g>
</g>
</g>
<path id="Vector_54" d="M37.664 45.7749V47.1337C37.3782 47.1337 37.0924 47.1222 36.812 47.1022C36.3664 46.6191 36.1084 45.738 35.8257 44.7687C35.6859 44.2825 35.4596 43.512 35.2828 43.1963C34.9398 43.3438 34.274 43.8584 33.8562 44.1803C33.0761 44.7833 32.367 45.3286 31.7383 45.4592C31.4124 45.5276 31.1119 45.4876 30.8323 45.2856C30.552 45.0813 30.4153 44.8079 30.3836 44.4753C30.3148 43.8354 30.6207 42.9912 30.9582 42.0618C31.1359 41.5725 31.4186 40.7913 31.4526 40.4272C31.0926 40.3504 30.2716 40.3758 29.7518 40.3934C28.7516 40.4249 27.8425 40.4557 27.2478 40.1891C26.9419 40.0555 26.7218 39.8419 26.6129 39.5093C26.5071 39.1852 26.5611 38.8864 26.7303 38.6053C27.0477 38.0591 27.7791 37.5621 28.5855 37.0191C29.0343 36.7118 29.7572 36.2233 29.9974 35.9414H31.132C31.132 36.2087 31.149 36.476 31.1838 36.7349C30.8238 37.2242 30.1604 37.6728 29.3888 38.1935C29.0682 38.4094 28.6087 38.722 28.2966 38.9778C28.7137 39.0031 29.303 38.9862 29.7062 38.9724C30.6099 38.944 31.3869 38.9187 31.9531 39.0915C32.2504 39.1798 32.4906 39.3273 32.6559 39.5547C32.8243 39.7851 32.8907 40.0578 32.8876 40.3735C32.876 40.9649 32.6103 41.6954 32.3014 42.5457C32.1639 42.9213 31.97 43.4667 31.8665 43.8646C32.2126 43.6457 32.6667 43.2993 32.9788 43.0573C33.7048 42.5004 34.3281 42.0165 34.8966 41.826C35.068 41.7661 35.2341 41.7354 35.394 41.7354C35.5145 41.7354 35.6311 41.7553 35.7485 41.7922C36.0173 41.8805 36.2312 42.0626 36.4058 42.3184C36.7402 42.7961 36.9549 43.5266 37.2006 44.3739C37.321 44.7863 37.4948 45.3916 37.6609 45.7811C37.6609 45.778 37.664 45.778 37.664 45.7757V45.7749Z" fill="url(#paint10_linear_0_63)"/>
</g>
</g>
<defs>
<linearGradient id="paint0_linear_0_63" x1="0" y1="45.4328" x2="4.63037" y2="45.4328" gradientUnits="userSpaceOnUse">
<stop stop-color="#037AD6"/>
<stop offset="1" stop-color="#03DDAF"/>
</linearGradient>
<linearGradient id="paint1_linear_0_63" x1="26.4062" y1="30.3473" x2="37.6597" y2="30.3473" gradientUnits="userSpaceOnUse">
<stop stop-color="#037AD6"/>
<stop offset="1" stop-color="#03DDAF"/>
</linearGradient>
<linearGradient id="paint2_linear_0_63" x1="37.6621" y1="41.5387" x2="48.9164" y2="41.5387" gradientUnits="userSpaceOnUse">
<stop stop-color="#037AD6"/>
<stop offset="1" stop-color="#03DDAF"/>
</linearGradient>
<linearGradient id="paint3_linear_0_63" x1="36.9785" y1="27.1148" x2="38.3981" y2="27.1148" gradientUnits="userSpaceOnUse">
<stop stop-color="#037AD6"/>
<stop offset="1" stop-color="#03DDAF"/>
</linearGradient>
<linearGradient id="paint4_linear_0_63" x1="41.8414" y1="29.745" x2="46.1814" y2="29.745" gradientUnits="userSpaceOnUse">
<stop stop-color="#037AD6"/>
<stop offset="1" stop-color="#03DDAF"/>
</linearGradient>
<linearGradient id="paint5_linear_0_63" x1="43.0262" y1="31.606" x2="47.8111" y2="31.606" gradientUnits="userSpaceOnUse">
<stop stop-color="#037AD6"/>
<stop offset="1" stop-color="#03DDAF"/>
</linearGradient>
<linearGradient id="paint6_linear_0_63" x1="38.7101" y1="27.4195" x2="41.3068" y2="27.4195" gradientUnits="userSpaceOnUse">
<stop stop-color="#037AD6"/>
<stop offset="1" stop-color="#03DDAF"/>
</linearGradient>
<linearGradient id="paint7_linear_0_63" x1="43.8409" y1="33.7679" x2="48.7385" y2="33.7679" gradientUnits="userSpaceOnUse">
<stop stop-color="#037AD6"/>
<stop offset="1" stop-color="#03DDAF"/>
</linearGradient>
<linearGradient id="paint8_linear_0_63" x1="40.368" y1="28.3174" x2="43.9603" y2="28.3174" gradientUnits="userSpaceOnUse">
<stop stop-color="#037AD6"/>
<stop offset="1" stop-color="#03DDAF"/>
</linearGradient>
<linearGradient id="paint9_linear_0_63" x1="44.2063" y1="36.0716" x2="48.9201" y2="36.0716" gradientUnits="userSpaceOnUse">
<stop stop-color="#037AD6"/>
<stop offset="1" stop-color="#03DDAF"/>
</linearGradient>
<linearGradient id="paint10_linear_0_63" x1="26.5588" y1="41.5379" x2="37.664" y2="41.5379" gradientUnits="userSpaceOnUse">
<stop stop-color="#037AD6"/>
<stop offset="1" stop-color="#03DDAF"/>
</linearGradient>
</defs>
</svg>
