<svg width="24" height="14" viewBox="0 0 24 14" fill="none" xmlns="http://www.w3.org/2000/svg">
<g id="online-course-icon 1" clip-path="url(#clip0_0_171)">
<g id="Group">
<path id="Vector" fill-rule="evenodd" clip-rule="evenodd" d="M0.533203 11.9589H2.58594C2.39062 11.9078 2.24414 11.7269 2.24414 11.5145V0.458143C2.24414 0.206459 2.44922 0 2.69922 0H21.1836C21.4336 0 21.6387 0.206459 21.6387 0.458143V11.5126C21.6387 11.7249 21.4941 11.9058 21.2969 11.9569H23.4688C23.7617 11.9569 24.002 12.1968 24.002 12.4937C24.002 12.7887 23.7637 13.0305 23.4688 13.0305H0.533203C0.240234 13.0305 0 12.7907 0 12.4937C0 12.1988 0.238281 11.9589 0.533203 11.9589ZM5.8418 2.15701H10.6035V7.90641C10.5938 8.06765 10.3887 8.07158 10.166 8.06175H5.76562C5.45703 8.06175 5.20508 8.3154 5.20508 8.62607C5.20508 8.93674 5.45703 9.19039 5.76562 9.19039H10.3691V8.59068H10.8066V9.35359C10.8066 9.4932 10.6934 9.60528 10.5566 9.60528H5.78711C5.23242 9.81174 4.7793 9.35556 4.7793 8.79714V3.22667C4.78125 2.63875 5.25781 2.15701 5.8418 2.15701ZM13.0332 9.29854C12.875 9.29854 12.7461 9.15893 12.7461 8.98787C12.7461 8.8168 12.875 8.67719 13.0332 8.67719H18.7539C18.9121 8.67719 19.041 8.8168 19.041 8.98787C19.041 9.15893 18.9121 9.29854 18.7539 9.29854H13.0332ZM12.9922 2.51291H19.2949C19.4297 2.51291 19.541 2.62498 19.541 2.76066V3.64548C19.541 3.77919 19.4297 3.89323 19.2949 3.89323H12.9922C12.8594 3.89323 12.7461 3.78312 12.7461 3.64548V2.76066C12.7461 2.62302 12.8574 2.51291 12.9922 2.51291ZM13.0332 5.82609C12.875 5.82609 12.7461 5.68648 12.7461 5.51541C12.7461 5.34435 12.875 5.20474 13.0332 5.20474H18.3613C18.5195 5.20474 18.6484 5.34435 18.6484 5.51541C18.6484 5.68648 18.5195 5.82609 18.3613 5.82609H13.0332ZM13.0332 7.56231C12.875 7.56231 12.7461 7.42271 12.7461 7.25164C12.7461 7.08057 12.875 6.94097 13.0332 6.94097H17.5312C17.6895 6.94097 17.8184 7.08057 17.8184 7.25164C17.8184 7.42271 17.6895 7.56231 17.5312 7.56231H13.0332ZM6.03906 2.99268H6.2168C6.30664 2.99268 6.38086 3.05363 6.38086 3.12638V7.32833C6.38086 7.40108 6.30664 7.46203 6.2168 7.46203H6.03906C5.94922 7.46203 5.875 7.40108 5.875 7.32833V3.12638C5.875 3.05167 5.94922 2.99268 6.03906 2.99268ZM3.02148 0.717692H20.9219V11.3828H3.02148V0.717692ZM11.5527 12.1595H13.0508C13.1914 12.1595 13.3066 12.2755 13.3066 12.4171C13.3066 12.5586 13.1914 12.6746 13.0508 12.6746H11.5527C11.4121 12.6746 11.2969 12.5586 11.2969 12.4171C11.2969 12.2735 11.4121 12.1595 11.5527 12.1595Z" fill="#A8A8A8"/>
</g>
</g>
<defs>
<clipPath id="clip0_0_171">
<rect width="24" height="13.0286" fill="white"/>
</clipPath>
</defs>
</svg>
