<svg width="24" height="28" viewBox="0 0 24 28" fill="none" xmlns="http://www.w3.org/2000/svg">
<g id="resume-cv-icon 1" clip-path="url(#clip0_0_166)">
<g id="Group">
<path id="Vector" d="M0.274631 27.8018C0.114042 27.7288 0 27.5716 0 27.3848V0.455729C0 0.205078 0.207137 0 0.465477 0H4.98061H23.5345C23.7905 0 24 0.202799 24 0.455729V25.0036C24 25.0286 23.9977 25.0514 23.9953 25.0742C23.9302 25.9697 23.6323 26.667 23.097 27.1683C22.5617 27.665 21.8099 27.943 20.8348 27.9977C20.8138 28 20.7952 28.0023 20.7742 28.0023H0.65865C0.500388 28 0.358417 27.9202 0.274631 27.8018ZM10.571 8.90495C11.1458 10.0762 12.8844 10.1172 13.4337 8.91178C13.2847 8.76367 13.173 8.60417 13.0613 8.44694C13.0427 8.42188 13.024 8.39453 13.0078 8.36947C12.7424 8.57454 12.4213 8.70671 12.0023 8.70671C11.5508 8.70671 11.2087 8.53581 10.9294 8.28516C10.9131 8.26921 10.8968 8.25553 10.8805 8.23958C10.841 8.34896 10.7898 8.47884 10.7362 8.59961C10.6804 8.71582 10.6245 8.8252 10.571 8.90495ZM13.5943 8.7819C14.2064 9.20573 15.6959 9.30827 16.2684 9.62044C16.4593 9.72298 16.6292 9.85514 16.7688 10.0352C17.0574 10.4066 17.6439 11.7578 16.6897 11.8285H14.8953L15.1164 9.40853C14.6346 9.31738 14.1249 9.24447 13.5919 8.94369C13.2638 10.3587 11.0318 10.5615 10.3894 8.98242C9.91233 9.21712 9.44686 9.35384 8.89061 9.43587L9.23739 11.8262H7.31032C6.35609 11.7555 6.94492 10.4043 7.23119 10.0329C7.3685 9.85514 7.54073 9.72298 7.73158 9.61816C8.30178 9.30599 9.78433 9.20345 10.4011 8.78418C10.4453 8.7181 10.4942 8.62012 10.5407 8.5153C10.6106 8.35807 10.6757 8.1849 10.7176 8.06641C10.5454 7.86816 10.3988 7.64486 10.2568 7.42383L9.79131 6.69694C9.62141 6.44857 9.53297 6.2207 9.52599 6.03385C9.52366 5.94499 9.53763 5.86523 9.57254 5.79688C9.60745 5.72396 9.66098 5.66244 9.73313 5.61458C9.76571 5.5918 9.80528 5.57357 9.84717 5.55762C9.81691 5.16341 9.80528 4.66667 9.82622 4.25195C9.83553 4.15397 9.85648 4.05371 9.88441 3.95573C10.0031 3.53874 10.3033 3.20378 10.6734 2.97135C10.8782 2.84375 11.1016 2.74805 11.3344 2.68424C11.481 2.64323 11.3134 2.31738 11.467 2.30143C12.2071 2.22624 13.301 2.7526 13.8177 3.29948C14.076 3.57292 14.2389 3.9375 14.2739 4.41829L14.2436 5.60319C14.3739 5.64193 14.4554 5.72168 14.4903 5.85156C14.5275 5.99512 14.488 6.19792 14.3623 6.47591C14.36 6.48047 14.3576 6.48503 14.3553 6.49186L13.8247 7.34863C13.6292 7.66309 13.4313 7.97982 13.173 8.22819C13.1963 8.26009 13.2196 8.29427 13.2428 8.32845C13.3476 8.47884 13.4546 8.63151 13.5896 8.76595C13.5873 8.77279 13.5919 8.77734 13.5943 8.7819ZM10.1125 5.76953C10.0101 5.77409 9.93095 5.7946 9.87742 5.82878C9.84717 5.84928 9.82389 5.87435 9.80993 5.90397C9.79364 5.93815 9.78666 5.97917 9.78898 6.02702C9.79364 6.16602 9.86811 6.34831 10.0101 6.55794L10.0124 6.56022L10.4779 7.28711C10.6641 7.57878 10.8619 7.875 11.104 8.09375C11.339 8.30339 11.623 8.44466 11.9977 8.44694C12.405 8.44694 12.7029 8.30111 12.9449 8.0778C13.1963 7.84766 13.3941 7.53092 13.5896 7.21647L14.1156 6.36882C14.2133 6.15007 14.2483 6.00423 14.2273 5.91764C14.2133 5.86751 14.1575 5.84245 14.0574 5.83561C14.0365 5.83561 14.0155 5.83333 13.9946 5.83561C13.9713 5.83561 13.9457 5.83789 13.9201 5.84017C13.9061 5.84245 13.8922 5.84017 13.8805 5.83789C13.834 5.84017 13.7851 5.83789 13.7362 5.83106L13.9154 5.05176C12.5795 5.25684 11.5811 4.28613 10.1683 4.85807L10.2708 5.77637C10.2172 5.77865 10.1637 5.77637 10.1125 5.76953ZM16.4011 24.6504C16.1474 24.6504 15.9403 24.4476 15.9403 24.1947C15.9403 23.944 16.1451 23.7389 16.4011 23.7389H20.2832C20.5368 23.7389 20.744 23.9417 20.744 24.1947C20.744 24.4453 20.5392 24.6504 20.2832 24.6504H16.4011ZM3.91466 21.3327C3.66098 21.3327 3.45384 21.1299 3.45384 20.877C3.45384 20.6263 3.65865 20.4212 3.91466 20.4212H20.3227C20.5764 20.4212 20.7836 20.624 20.7836 20.877C20.7836 21.1276 20.5787 21.3327 20.3227 21.3327H3.91466ZM3.98914 18.015C3.73545 18.015 3.52832 17.8122 3.52832 17.5592C3.52832 17.3086 3.73313 17.1035 3.98914 17.1035H20.2808C20.5345 17.1035 20.7417 17.3063 20.7417 17.5592C20.7417 17.8099 20.5368 18.015 20.2808 18.015H3.98914ZM3.91466 14.6973C3.66098 14.6973 3.45384 14.4945 3.45384 14.2415C3.45384 13.9909 3.65865 13.7858 3.91466 13.7858H10.9271C11.1808 13.7858 11.3879 13.9886 11.3879 14.2415C11.3879 14.4922 11.1831 14.6973 10.9271 14.6973H3.91466ZM12.7168 14.6973C12.4631 14.6973 12.256 14.4945 12.256 14.2415C12.256 13.9909 12.4608 13.7858 12.7168 13.7858H20.2808C20.5345 13.7858 20.7417 13.9886 20.7417 14.2415C20.7417 14.4922 20.5368 14.6973 20.2808 14.6973H12.7168ZM23.0714 24.9922V0.90918H4.98061H0.928627V27.0908H20.7719H20.7812C21.5283 27.0498 22.0869 26.8538 22.4569 26.5098C22.8223 26.1702 23.0248 25.6621 23.0714 24.9922Z" fill="#A8A8A8"/>
</g>
</g>
<defs>
<clipPath id="clip0_0_166">
<rect width="24" height="28" fill="white"/>
</clipPath>
</defs>
</svg>
